HIERARCHY
ROOT joint_0
{
	OFFSET 0.000000 0.000000 0.000000
	CHANNELS 6 Xposition Yposition Zposition Zrotation Yrotation Xrotation 
	JOINT joint_1
	{
		OFFSET 1.363060 -1.794630 0.839290
		CHANNELS 3 Zrotation Yrotation Xrotation
		JOINT joint_2
		{
			OFFSET 2.448110 -6.726130 0.000000
			CHANNELS 3 Zrotation Yrotation Xrotation
			JOINT joint_3
			{
				OFFSET 2.562200 -7.039590 0.000000
				CHANNELS 3 Zrotation Yrotation Xrotation
				JOINT joint_4
				{
					OFFSET 0.157640 -0.433110 2.322550
					CHANNELS 3 Zrotation Yrotation Xrotation
					End Site
					{
						OFFSET 0.000000 0.000000 0.000000
					}
				}
			}
		}
	}
	JOINT joint_5
	{
		OFFSET -1.305520 -1.794630 0.839290
		CHANNELS 3 Zrotation Yrotation Xrotation
		JOINT joint_6
		{
			OFFSET -2.542530 -6.985550 0.000000
			CHANNELS 3 Zrotation Yrotation Xrotation
			JOINT joint_7
			{
				OFFSET -2.568260 -7.056230 0.000000
				CHANNELS 3 Zrotation Yrotation Xrotation
				JOINT joint_8
				{
					OFFSET -0.164730 -0.452590 2.363150
					CHANNELS 3 Zrotation Yrotation Xrotation
					End Site
					{
						OFFSET 0.000000 0.000000 0.000000
					}
				}
			}
		}
	}
	JOINT joint_9
	{
		OFFSET 0.028270 2.035590 -0.193380
		CHANNELS 3 Zrotation Yrotation Xrotation
		JOINT joint_10
		{
			OFFSET 0.056720 2.048850 -0.042750
			CHANNELS 3 Zrotation Yrotation Xrotation
			JOINT joint_11
			{
				OFFSET -0.054170 1.746240 0.172020
				CHANNELS 3 Zrotation Yrotation Xrotation
				JOINT joint_12
				{
					OFFSET 0.104070 1.761360 -0.123970
					CHANNELS 3 Zrotation Yrotation Xrotation
					End Site
					{
						OFFSET 0.000000 0.000000 0.000000
					}
				}
			}
			JOINT joint_13
			{
				OFFSET 3.362410 1.200890 -0.311210
				CHANNELS 3 Zrotation Yrotation Xrotation
				JOINT joint_14
				{
					OFFSET 4.983000 -0.000000 -0.000000
					CHANNELS 3 Zrotation Yrotation Xrotation
					JOINT joint_15
					{
						OFFSET 3.483560 -0.000000 -0.000000
						CHANNELS 3 Zrotation Yrotation Xrotation
						JOINT joint_16
						{
							OFFSET 0.000000 0.000000 0.000000
							CHANNELS 3 Zrotation Yrotation Xrotation
							End Site
							{
								OFFSET 0.000000 0.000000 0.000000
							}
						}
					}
				}
			}
			JOINT joint_17
			{
				OFFSET -3.136600 1.374050 -0.404650
				CHANNELS 3 Zrotation Yrotation Xrotation
				JOINT joint_18
				{
					OFFSET -5.241900 -0.000000 -0.000000
					CHANNELS 3 Zrotation Yrotation Xrotation
					JOINT joint_19
					{
						OFFSET -3.444170 -0.000000 -0.000000
						CHANNELS 3 Zrotation Yrotation Xrotation
						JOINT joint_20
						{
							OFFSET 0.000000 0.000000 0.000000
							CHANNELS 3 Zrotation Yrotation Xrotation
							End Site
							{
								OFFSET 0.000000 0.000000 0.000000
							}
						}
					}
				}
			}
		}
	}
}
MOTION
Frames: 15
Frame Time: 0.031667
0.383414 16.863363 -1.810240 -1.405944 0.763194 0.967095 -13.242857 -16.857913 0.947511 -1.762421 2.517288 9.997761 -0.450365 3.790686 -14.344717 0.025902 -0.087834 -0.423123 21.773528 5.004426 -2.655602 0.913149 -3.608245 9.946817 -3.063648 -4.233710 0.276135 -0.001246 -0.125830 0.467596 1.416383 -0.852620 -6.277754 -2.517040 0.020023 2.388462 4.461582 -4.195431 11.710785 2.271884 -1.806926 5.056815 -20.890746 -8.481162 6.806441 13.923740 -19.830883 -9.656577 0.620518 -2.888266 -3.038216 -7.100639 0.036066 0.056293 11.884782 4.309590 -18.556237 -10.788498 17.316381 -9.601243 0.613185 2.871759 -10.438034 7.118679 0.022282 0.029189 
0.383318 16.859610 -1.817252 -1.379972 0.747692 0.969901 -13.825656 -17.842033 1.218662 -1.988006 1.052114 7.308456 0.025977 -2.497418 -16.190261 -0.028609 0.925806 2.522456 22.861874 4.339849 -1.248597 0.379529 -3.650810 8.170486 -3.095762 -2.641210 0.161348 -0.092550 0.805096 -2.475792 1.694237 -0.991712 -6.713819 -2.302893 -0.545971 3.587693 3.889836 -4.508311 12.747773 2.369628 -2.012579 5.556308 -20.739862 -10.895568 5.545777 12.606338 -18.491875 -10.815532 0.249075 -3.382458 -2.767999 -7.173253 -0.035740 -0.007437 13.115322 4.132237 -18.423857 -10.368714 16.041894 -11.266299 0.446672 2.942901 -12.747640 7.044502 -0.043022 -0.057589 
0.359751 16.856756 -1.922252 -1.278687 2.231196 1.264987 -13.254044 -17.413452 0.205510 -2.235311 0.737092 6.547814 1.105211 -6.282143 -16.709205 -0.009131 1.624704 4.540666 24.149371 4.299530 -1.756995 0.625490 -3.569984 7.571178 3.472122 -2.358349 -5.492023 -0.210876 2.027208 -6.165813 2.104801 -1.380840 -8.083229 -3.015844 -0.610645 3.742736 4.089815 -4.566911 13.434844 2.547920 -2.139796 5.768530 -21.656995 -14.500715 2.414986 11.717936 -17.351400 -12.018761 0.528675 -4.097096 0.873565 -7.216084 -0.063740 -0.038025 13.436107 2.716176 -20.756262 -8.706265 14.734774 -12.491850 0.422341 3.287135 -12.830542 7.004631 -0.069468 -0.083725 
0.356616 16.846096 -1.948889 -0.875224 1.924792 0.723241 -13.507986 -16.532888 -3.557623 -2.640239 1.141955 8.043025 2.864619 -9.633073 -18.232630 0.039677 2.439304 6.899316 25.690315 3.899756 -2.264785 1.310740 -3.751139 8.693864 3.417769 -4.712237 -8.485375 -0.253182 2.018960 -6.493990 1.412938 -1.356128 -8.892263 -2.924405 -0.945880 4.562313 4.382706 -4.247727 14.542052 2.388947 -2.135821 6.266881 -20.988029 -13.368688 0.683987 11.097600 -16.806861 -12.911753 0.748859 -4.142133 1.908958 -7.265743 -0.104520 -0.076067 15.042989 3.848646 -22.243291 -8.252491 13.508850 -13.543918 0.546289 3.151913 -13.421000 6.957641 -0.105633 -0.124337 
0.352688 16.855104 -1.909324 -1.206381 1.764283 0.913657 -13.347459 -14.571638 -6.543186 -2.623386 0.971078 8.040178 1.833724 -6.710724 -15.913208 -0.002712 2.598000 7.448485 27.228520 2.794826 -3.861236 1.388999 -4.017829 8.365017 3.370364 -5.774270 -13.017891 -0.350699 2.290311 -7.544331 0.577631 -1.709425 -9.987948 -3.367836 -0.874324 5.011901 3.368710 -3.853259 16.122585 2.428137 -1.966107 6.621768 -20.928434 -13.504063 1.246158 10.534501 -16.119412 -13.930446 1.071033 -4.839042 1.438541 -7.326745 -0.173814 -0.149066 15.864713 6.719510 -20.773006 -8.148918 12.570311 -14.829537 -0.281993 3.786168 -12.757744 6.869669 -0.166831 -0.194224 
0.353326 16.855556 -1.907733 -1.240121 1.724975 0.923689 -14.097410 -13.935073 -7.882331 -2.850799 0.981272 6.850345 1.493553 -4.016038 -17.023988 -0.176292 1.821721 5.546200 28.580193 2.229269 -3.898802 1.845849 -4.019079 7.122829 5.291899 -5.768176 -16.849605 -0.426816 2.086171 -7.485684 0.058011 -2.032026 -9.797765 -3.816129 -1.306946 5.511539 3.123355 -3.709543 18.071660 2.188386 -1.965590 7.227272 -21.058929 -11.717616 0.836613 10.273694 -16.036188 -14.888712 1.674606 -5.228212 -2.098258 -7.415185 -0.273045 -0.250980 16.132786 7.141348 -19.680639 -8.143281 11.884923 -15.711364 -0.160910 3.403335 -11.339258 6.743847 -0.254555 -0.298580 
0.353497 16.856457 -1.906577 -1.280150 1.729442 0.936999 -15.055245 -12.632893 -10.279108 -2.954917 -0.083301 4.532273 0.242332 -0.833132 -14.729431 -0.289937 0.923555 3.283304 28.807068 1.543116 -3.939188 2.047442 -3.445104 5.271316 6.849696 -5.624879 -18.742485 -0.509150 2.255512 -8.340226 -0.077888 -2.341027 -11.080134 -3.683017 -1.137073 7.188293 3.210112 -3.236191 18.104910 2.011507 -1.934179 7.368558 -19.848334 -9.461181 1.055642 10.198794 -15.428527 -16.611878 2.109088 -5.392099 -5.727890 -7.459604 -0.332284 -0.307855 15.244745 6.229516 -16.560167 -7.728799 11.880857 -16.971660 -0.583974 3.614189 -10.788333 6.663994 -0.306397 -0.357169 
0.354524 16.854355 -1.908769 -1.262170 1.675628 0.897137 -15.994646 -10.727616 -10.835891 -3.267009 -0.661454 2.240067 -0.472304 1.087052 -14.634743 -0.312778 -0.261333 0.106411 29.822146 0.646340 -2.899337 2.431579 -2.734169 2.684450 3.603101 -4.558868 -20.024276 -0.492893 2.244442 -8.014287 0.134885 -2.584910 -10.772931 -3.674848 -0.855168 7.435365 3.651966 -2.435482 19.531253 2.496403 -1.449543 7.575220 -19.743145 -8.646935 0.599897 9.678596 -15.693995 -16.766552 2.687492 -5.492685 -10.168856 -7.441798 -0.328992 -0.312013 15.839982 5.206903 -14.054449 -8.329756 12.286744 -16.893336 -0.299438 3.767383 -9.395792 6.661532 -0.302415 -0.351096 
0.355215 16.853754 -1.910480 -1.258266 1.650171 0.888190 -16.735816 -10.147606 -11.137902 -2.911827 -1.880493 -1.620733 -0.883385 4.900742 -14.006665 -0.295681 -1.144739 -2.244421 29.263339 1.913779 -2.957730 2.046561 -1.400947 -1.164225 0.938809 -6.284045 -22.087170 -0.486604 2.217026 -7.845200 0.382185 -2.483269 -10.837813 -4.017601 -1.570359 7.645072 4.293750 -1.408272 20.895604 2.556933 -1.043194 7.537074 -20.114150 -7.650297 0.840871 9.641740 -15.496007 -17.043667 3.362352 -5.220434 -12.280903 -7.422781 -0.333232 -0.326072 15.995737 5.263502 -11.999540 -9.173253 12.770170 -17.552764 -0.523028 4.214131 -8.002663 6.632906 -0.305696 -0.355202 
0.354847 16.854204 -1.912898 -1.277922 1.673580 0.855423 -15.610571 -8.294028 -12.787385 -2.807772 -2.711180 -3.749759 0.126852 -0.570769 -14.640174 -0.222271 -1.916233 -4.368685 28.924814 1.279707 -2.687640 2.194218 -0.178171 -3.741595 0.765639 -7.384450 -20.527860 -0.451697 2.163566 -7.646829 0.772026 -2.323562 -11.027924 -3.659168 -1.515183 6.742336 4.772412 -1.222610 21.392735 2.329583 -0.768689 7.848449 -20.525625 -7.215114 0.827702 9.439779 -15.125564 -18.035393 3.142930 -5.530813 -14.764427 -7.407275 -0.305399 -0.305902 15.949410 5.493695 -8.544282 -9.965135 13.494518 -18.290625 -0.545531 4.490787 -7.649219 6.663872 -0.280899 -0.326737 
0.355467 16.859909 -1.895105 -1.494062 1.709578 1.028775 -16.944017 -7.225725 -12.995166 -2.652115 -2.863475 -3.942747 1.390166 -4.778560 -14.959435 -0.165815 -2.021994 -4.660104 28.398464 0.782652 -3.605367 1.858859 0.524392 -4.993385 1.425179 -6.965860 -19.501760 -0.477192 2.740974 -9.080193 1.536524 -2.663676 -9.879271 -3.472601 -1.857774 6.311360 4.828315 -0.880989 21.695821 1.914343 -0.692811 8.169094 -19.499778 -7.637660 0.041394 8.723058 -15.519136 -17.599912 3.491246 -5.399152 -14.931333 -7.372516 -0.254264 -0.258661 16.382640 9.070974 -5.943591 -9.634642 14.007047 -18.288124 -0.433684 4.420184 -6.037175 6.728226 -0.234625 -0.270802 
0.355698 16.858559 -1.896486 -1.490068 1.658553 0.979278 -17.725065 -3.742461 -11.226193 -2.849228 -2.754677 -3.365033 1.792489 -11.458864 -13.227158 -0.161623 -1.955744 -4.516279 27.740506 -0.302242 -5.384201 2.186616 0.534973 -5.406572 0.750095 -6.227073 -16.042279 -0.455071 2.640103 -8.797175 1.382766 -2.674378 -8.503385 -3.526135 -1.526913 6.618131 4.786338 -0.934222 21.215552 1.698593 -0.653261 8.289154 -18.184375 -8.335192 -0.089650 8.536542 -14.798940 -17.912273 3.240648 -5.415356 -14.953508 -7.365847 -0.243989 -0.246327 15.865283 10.068067 -4.511580 -10.183914 14.476434 -18.676174 -0.378361 4.562670 -5.608867 6.739979 -0.226052 -0.259778 
0.356209 16.859009 -1.897598 -1.467705 1.612175 0.967268 -19.112776 -1.057165 -9.182616 -2.751636 -2.326107 -2.112942 2.059648 -10.759712 -14.949993 -0.158114 -1.871237 -4.323761 27.293542 -1.209211 -7.218304 2.233093 0.059202 -4.545685 1.381070 -4.999949 -13.390483 -0.402416 2.340011 -7.910959 1.703275 -3.044569 -10.635839 -2.631201 -2.041463 5.985905 4.793029 -0.525669 20.860967 1.685032 -0.508086 8.798998 -17.136665 -10.486111 -0.600228 7.490210 -14.850735 -17.529364 3.655689 -5.422342 -13.719082 -7.351315 -0.232138 -0.235980 15.053008 9.643226 -5.192020 -9.568204 14.076233 -18.913544 -0.544355 4.739863 -5.177171 6.758534 -0.215417 -0.244604 
0.356011 16.859159 -1.899114 -1.498228 1.643050 0.943425 -19.710298 1.182891 -6.341187 -2.737425 -1.539149 -0.519097 1.331775 -8.162448 -14.511332 -0.188922 -1.503857 -3.288392 26.710216 -2.265858 -7.865174 2.141034 -0.519677 -3.478518 1.274303 -5.071169 -13.444681 -0.330175 1.653412 -6.028535 1.673844 -3.623798 -11.471015 -1.918382 -2.086198 5.432656 4.433233 -0.558986 20.441106 1.256265 -0.409881 8.929352 -17.117341 -12.175899 -1.051290 6.428475 -14.496528 -17.436544 3.705466 -5.477189 -12.756957 -7.350545 -0.234869 -0.236139 13.797995 8.532294 -6.751490 -7.998246 13.044735 -18.024850 -0.562576 4.332953 -5.824641 6.755906 -0.217772 -0.247993 
0.357096 16.857958 -1.897973 -1.507732 1.614423 0.943045 -19.802867 2.483844 -4.587575 -2.914206 -0.854212 1.074413 0.308667 -5.146100 -15.693613 -0.224967 -0.694673 -1.094786 25.160578 -3.436199 -9.693564 2.736063 -1.241967 -2.570351 2.289556 -4.747017 -10.684594 -0.329772 1.636127 -5.932970 1.878500 -3.834145 -12.124025 -1.493399 -2.168640 5.658063 3.321977 -0.117764 19.970402 0.817524 -0.268446 8.852333 -16.526738 -14.124298 -1.303822 6.146240 -14.775598 -17.018489 4.257653 -5.189285 -13.164998 -7.346401 -0.236841 -0.227808 13.121632 8.538009 -9.063387 -7.623637 12.712080 -17.828575 -0.921697 4.091353 -5.733735 6.757655 -0.220381 -0.247875 
